<?xml version="1.0" encoding="UTF-8" standalone="no" ?>
<!DOCTYPE svg PUBLIC "-//W3C//DTD SVG 1.1//EN" "http://www.w3.org/Graphics/SVG/1.1/DTD/svg11.dtd">
<svg xmlns="http://www.w3.org/2000/svg" xmlns:xlink="http://www.w3.org/1999/xlink" version="1.1" width="1080" height="1080" viewBox="0 0 1080 1080" xml:space="preserve">
<desc>Created with Fabric.js 5.2.4</desc>
<defs>
</defs>
<g transform="matrix(1 0 0 1 540 540)" id="c7d20f0c-7202-4fec-9683-1a87865ee869"  >
<rect style="stroke: none; stroke-width: 1; stroke-dasharray: none; stroke-linecap: butt; stroke-dashoffset: 0; stroke-linejoin: miter; stroke-miterlimit: 4; fill: rgb(255,255,255); fill-rule: nonzero; opacity: 1; visibility: hidden;" vector-effect="non-scaling-stroke"  x="-540" y="-540" rx="0" ry="0" width="1080" height="1080" />
</g>
<g transform="matrix(1 0 0 1 540 540)" id="46747993-00ac-4928-a2c5-edba918f2f03"  >
</g>
<g transform="matrix(1 0 0 1 540 540)"  >
<g style="" vector-effect="non-scaling-stroke"   >
		<g transform="matrix(0.13 0 0 -0.13 163.5 -413.44)"  >
<path style="stroke: none; stroke-width: 1; stroke-dasharray: none; stroke-linecap: butt; stroke-dashoffset: 0; stroke-linejoin: miter; stroke-miterlimit: 4; fill: rgb(6,149,215); fill-rule: nonzero; opacity: 1;" vector-effect="non-scaling-stroke"  transform=" translate(-5235.86, -6515.19)" d="M 5228 6513 C 5235 6510 5244 6511 5247 6514 C 5251 6517 5245 6520 5234 6519 C 5223 6519 5220 6516 5228 6513 z" stroke-linecap="round" />
</g>
		<g transform="matrix(0.13 0 0 -0.13 192.6 -406.12)"  >
<path style="stroke: none; stroke-width: 1; stroke-dasharray: none; stroke-linecap: butt; stroke-dashoffset: 0; stroke-linejoin: miter; stroke-miterlimit: 4; fill: rgb(6,149,215); fill-rule: nonzero; opacity: 1;" vector-effect="non-scaling-stroke"  transform=" translate(-5454.34, -6460.13)" d="M 5440 6460 C 5460 6447 5483 6447 5475 6460 C 5472 6466 5459 6470 5447 6470 C 5429 6470 5428 6468 5440 6460 z" stroke-linecap="round" />
</g>
		<g transform="matrix(0.13 0 0 -0.13 -33.03 -402.1)"  >
<path style="stroke: none; stroke-width: 1; stroke-dasharray: none; stroke-linecap: butt; stroke-dashoffset: 0; stroke-linejoin: miter; stroke-miterlimit: 4; fill: rgb(6,149,215); fill-rule: nonzero; opacity: 1;" vector-effect="non-scaling-stroke"  transform=" translate(-3761.8, -6430)" d="M 3755 6430 C 3752 6425 3754 6420 3759 6420 C 3765 6420 3770 6425 3770 6430 C 3770 6436 3768 6440 3766 6440 C 3763 6440 3758 6436 3755 6430 z" stroke-linecap="round" />
</g>
		<g transform="matrix(0.13 0 0 -0.13 211.75 -399.07)"  >
<path style="stroke: none; stroke-width: 1; stroke-dasharray: none; stroke-linecap: butt; stroke-dashoffset: 0; stroke-linejoin: miter; stroke-miterlimit: 4; fill: rgb(6,149,215); fill-rule: nonzero; opacity: 1;" vector-effect="non-scaling-stroke"  transform=" translate(-5598.03, -6407.26)" d="M 5590 6405 C 5604 6398 5617 6394 5620 6396 C 5626 6403 5598 6420 5580 6419 C 5571 6419 5575 6413 5590 6405 z" stroke-linecap="round" />
</g>
		<g transform="matrix(0.13 0 0 -0.13 -62.24 -395.8)"  >
<path style="stroke: none; stroke-width: 1; stroke-dasharray: none; stroke-linecap: butt; stroke-dashoffset: 0; stroke-linejoin: miter; stroke-miterlimit: 4; fill: rgb(6,149,215); fill-rule: nonzero; opacity: 1;" vector-effect="non-scaling-stroke"  transform=" translate(-3543.2, -6382.74)" d="M 3535 6385 C 3512 6375 3510 6371 3525 6371 C 3546 6370 3577 6386 3570 6394 C 3567 6396 3552 6392 3535 6385 z" stroke-linecap="round" />
</g>
		<g transform="matrix(0.13 0 0 -0.13 224.08 -393.61)"  >
<path style="stroke: none; stroke-width: 1; stroke-dasharray: none; stroke-linecap: butt; stroke-dashoffset: 0; stroke-linejoin: miter; stroke-miterlimit: 4; fill: rgb(6,149,215); fill-rule: nonzero; opacity: 1;" vector-effect="non-scaling-stroke"  transform=" translate(-5690.84, -6366.26)" d="M 5660 6371 C 5668 6366 5689 6360 5705 6356 C 5733 6350 5734 6351 5716 6365 C 5705 6373 5685 6380 5671 6380 C 5652 6379 5649 6377 5660 6371 z" stroke-linecap="round" />
</g>
		<g transform="matrix(0.13 0 0 -0.13 -71.58 -391.01)"  >
<path style="stroke: none; stroke-width: 1; stroke-dasharray: none; stroke-linecap: butt; stroke-dashoffset: 0; stroke-linejoin: miter; stroke-miterlimit: 4; fill: rgb(6,149,215); fill-rule: nonzero; opacity: 1;" vector-effect="non-scaling-stroke"  transform=" translate(-3473.06, -6346.78)" d="M 3455 6350 C 3452 6345 3451 6340 3454 6340 C 3456 6340 3465 6337 3473 6334 C 3481 6331 3490 6336 3493 6344 C 3500 6362 3466 6367 3455 6350 z" stroke-linecap="round" />
</g>
		<g transform="matrix(0.13 0 0 -0.13 -60.35 -391.43)"  >
<path style="stroke: none; stroke-width: 1; stroke-dasharray: none; stroke-linecap: butt; stroke-dashoffset: 0; stroke-linejoin: miter; stroke-miterlimit: 4; fill: rgb(6,149,215); fill-rule: nonzero; opacity: 1;" vector-effect="non-scaling-stroke"  transform=" translate(-3557, -6350)" d="M 3545 6350 C 3542 6345 3546 6340 3554 6340 C 3563 6340 3570 6345 3570 6350 C 3570 6356 3566 6360 3561 6360 C 3555 6360 3548 6356 3545 6350 z" stroke-linecap="round" />
</g>
		<g transform="matrix(0.13 0 0 -0.13 69.27 -29.66)"  >
<path style="stroke: none; stroke-width: 1; stroke-dasharray: none; stroke-linecap: butt; stroke-dashoffset: 0; stroke-linejoin: miter; stroke-miterlimit: 4; fill: rgb(6,149,215); fill-rule: nonzero; opacity: 1;" vector-effect="non-scaling-stroke"  transform=" translate(-4601.36, -3567.85)" d="M 3315 6284 C 3153 6204 3146 6198 3156 6168 C 3160 6156 3156 6150 3145 6150 C 3134 6150 3130 6155 3134 6165 C 3144 6191 3116 6182 3050 6138 C 3015 6114 2973 6087 2957 6077 C 2941 6067 2922 6054 2916 6047 C 2909 6040 2880 6019 2852 6000 C 2814 5975 2801 5960 2804 5947 C 2807 5933 2804 5930 2793 5934 C 2771 5943 2710 5891 2550 5730 C 2395 5575 2400 5581 2271 5406 C 2156 5252 2098 5157 2019 5000 C 1832 4624 1744 4295 1708 3844 C 1684 3540 1743 3128 1861 2770 C 1884 2701 1906 2641 1911 2635 C 1916 2630 1920 2620 1920 2612 C 1920 2590 2063 2303 2120 2210 C 2180 2112 2309 1927 2342 1890 C 2355 1876 2383 1842 2405 1815 C 2448 1761 2633 1572 2690 1524 C 3037 1230 3378 1041 3781 921 C 4338 755 4935 762 5496 941 C 6232 1176 6856 1716 7200 2415 C 7299 2617 7388 2856 7419 3005 C 7482 3300 7500 3459 7500 3701 C 7500 4093 7427 4459 7281 4809 C 7241 4904 7114 5149 7062 5232 C 7011 5312 6883 5489 6860 5510 C 6857 5513 6841 5533 6825 5555 C 6756 5647 6404 5981 6355 6001 C 6349 6003 6308 6032 6262 6065 C 6216 6098 6171 6130 6162 6135 C 6153 6141 6126 6158 6102 6173 C 6069 6195 6056 6198 6040 6190 C 6030 6185 6008 6180 5992 6180 C 5967 6180 5963 6183 5967 6200 C 5972 6217 5968 6218 5934 6213 C 5909 6209 5899 6210 5903 6217 C 5907 6223 5903 6231 5894 6234 C 5872 6243 5870 6242 5870 6225 C 5870 6206 5836 6206 5806 6225 C 5785 6239 5782 6239 5777 6225 C 5772 6213 5754 6210 5696 6210 C 5655 6210 5619 6206 5616 6201 C 5607 6187 5571 6181 5563 6192 C 5560 6199 5562 6200 5568 6196 C 5575 6192 5580 6194 5580 6199 C 5580 6211 5561 6213 5508 6204 C 5487 6200 5470 6192 5470 6185 C 5470 6179 5458 6167 5443 6160 L 5415 6147 L 5443 6136 C 5458 6131 5470 6123 5470 6118 C 5470 6114 5482 6110 5496 6110 C 5511 6110 5519 6106 5515 6099 C 5511 6093 5501 6092 5491 6095 C 5482 6099 5448 6103 5416 6105 C 5375 6107 5354 6113 5348 6124 C 5343 6133 5329 6140 5317 6140 C 5305 6140 5289 6149 5282 6160 C 5275 6171 5263 6180 5255 6180 C 5227 6180 5240 6200 5268 6201 C 5283 6201 5289 6204 5282 6207 C 5275 6210 5249 6209 5224 6205 C 5168 6197 5171 6179 5231 6166 C 5263 6159 5269 6155 5252 6152 C 5240 6150 5217 6155 5200 6163 C 5184 6171 5170 6174 5168 6169 C 5166 6163 5147 6167 5125 6176 C 5093 6190 5089 6195 5105 6198 C 5115 6200 5126 6197 5128 6191 C 5132 6178 5170 6176 5170 6189 C 5170 6198 5123 6210 5088 6210 C 5078 6210 5072 6206 5075 6200 C 5078 6195 5072 6190 5061 6190 C 5049 6190 5040 6195 5040 6201 C 5040 6206 5045 6208 5050 6205 C 5056 6202 5060 6206 5060 6214 C 5060 6226 5050 6230 5018 6229 C 4979 6228 4978 6227 5005 6221 C 5026 6217 5031 6212 5022 6206 C 5009 6198 4920 6207 4885 6220 C 4874 6224 4821 6231 4768 6235 L 4670 6242 L 4670 6211 C 4670 6181 4641 6153 4625 6168 C 4620 6172 4620 6170 4623 6164 C 4627 6157 4623 6149 4614 6146 C 4606 6143 4601 6137 4603 6133 C 4609 6123 4584 6099 4576 6107 C 4573 6111 4561 6105 4550 6095 C 4530 6077 4530 6077 4530 6110 C 4530 6128 4528 6141 4525 6139 C 4516 6129 4511 5822 4511 5158 L 4510 4480 L 4474 4448 C 4421 4399 4400 4352 4400 4277 C 4400 4189 4437 4129 4516 4093 C 4646 4034 4773 4097 4811 4241 C 4829 4309 4810 4369 4748 4434 L 4700 4484 L 4700 4970 C 4700 5498 4692 6129 4685 6172 C 4681 6195 4685 6201 4706 6206 C 4743 6215 5011 6186 5120 6160 C 5172 6148 5231 6135 5250 6133 C 5269 6130 5290 6124 5296 6119 C 5305 6112 5386 6087 5448 6073 C 5460 6070 5470 6064 5470 6060 C 5470 6055 5485 6049 5503 6045 C 5553 6034 5806 5909 5902 5847 L 5988 5791 L 5983 4953 L 5978 4115 L 5940 4075 C 5887 4019 5867 3975 5868 3914 C 5869 3836 5915 3759 5985 3722 C 6030 3698 6126 3701 6177 3728 C 6308 3797 6329 3982 6215 4078 L 6183 4105 L 6177 4868 C 6171 5536 6172 5632 6185 5637 C 6207 5645 6446 5407 6570 5254 C 6603 5214 6698 5071 6747 4990 C 6919 4703 7024 4401 7081 4025 C 7102 3891 7099 3527 7077 3370 C 7051 3189 6981 2918 6930 2805 C 6925 2794 6905 2747 6885 2700 C 6805 2514 6661 2279 6540 2136 C 6438 2016 6354 1928 6277 1859 C 6187 1777 6008 1641 5915 1583 C 5841 1537 5671 1450 5655 1450 C 5642 1450 5640 1489 5640 1708 C 5639 1849 5638 2148 5637 2372 L 5635 2780 L 5800 2945 C 5891 3036 5968 3110 5972 3110 C 5977 3110 5980 3028 5980 2928 L 5980 2745 L 5939 2705 C 5871 2639 5852 2579 5871 2491 C 5894 2382 6011 2308 6120 2331 C 6225 2353 6290 2435 6290 2544 C 6290 2613 6265 2667 6215 2707 L 6180 2735 L 6180 3030 L 6180 3326 L 6371 3517 L 6562 3709 L 6611 3703 C 6650 3698 6669 3702 6714 3724 C 6828 3780 6870 3896 6815 4007 C 6765 4107 6645 4157 6554 4118 C 6462 4078 6417 4010 6415 3912 L 6414 3849 L 5922 3357 L 5430 2865 L 5430 2115 C 5430 1331 5431 1340 5388 1340 C 5371 1340 5370 1366 5370 1848 C 5370 2127 5367 2590 5364 2878 L 5358 3402 L 5564 3609 L 5770 3816 L 5770 4202 L 5770 4589 L 5815 4635 C 5924 4748 5893 4918 5753 4980 C 5676 5014 5592 4999 5532 4941 C 5478 4889 5465 4857 5466 4781 C 5467 4708 5491 4658 5542 4624 L 5570 4605 L 5570 4250 L 5570 3895 L 5448 3774 C 5380 3707 5288 3614 5243 3567 L 5160 3482 L 5160 2381 L 5160 1279 L 5138 1271 C 5125 1266 5112 1264 5108 1267 C 5103 1269 5100 1824 5100 2499 L 5100 3728 L 5134 3753 C 5260 3850 5217 4066 5061 4119 C 4966 4151 4865 4111 4812 4021 C 4792 3987 4787 3965 4787 3918 C 4788 3848 4799 3822 4856 3759 L 4898 3713 L 4893 2474 C 4889 1584 4884 1233 4876 1228 C 4870 1224 4830 1220 4788 1220 L 4710 1220 L 4710 2111 L 4710 3003 L 4754 3050 C 4838 3140 4841 3254 4762 3342 C 4715 3394 4677 3410 4599 3410 C 4549 3410 4529 3405 4495 3383 C 4441 3349 4404 3292 4395 3231 C 4386 3161 4403 3108 4455 3053 L 4500 3006 L 4500 2112 L 4500 1218 L 4416 1221 C 4370 1223 4330 1227 4327 1230 C 4325 1233 4320 1794 4316 2478 L 4309 3721 L 4346 3753 C 4398 3799 4423 3854 4422 3919 C 4420 4011 4372 4081 4287 4118 C 4223 4146 4118 4125 4068 4076 C 3978 3986 3978 3854 4067 3767 L 4110 3725 L 4110 2498 L 4110 1270 L 4085 1270 C 4071 1270 4058 1276 4055 1283 C 4053 1289 4049 1791 4047 2398 L 4041 3500 L 3841 3699 L 3640 3898 L 3638 4207 C 3636 4376 3636 4534 3636 4557 C 3636 4591 3642 4603 3664 4621 C 3788 4719 3766 4917 3624 4981 C 3571 5005 3536 5007 3476 4990 C 3376 4962 3306 4849 3330 4751 C 3341 4702 3405 4611 3428 4610 C 3437 4610 3440 4524 3440 4213 L 3440 3815 L 3640 3615 L 3840 3415 L 3840 2378 C 3840 1385 3839 1340 3822 1340 C 3780 1340 3780 1331 3780 2115 L 3780 2865 L 3286 3359 L 2792 3853 L 2793 3909 C 2794 3940 2788 3981 2780 4000 C 2708 4174 2459 4173 2386 3998 C 2354 3923 2370 3845 2429 3777 C 2474 3726 2512 3710 2588 3710 L 2652 3710 L 2841 3520 L 3030 3331 L 3030 3038 L 3030 2744 L 2985 2700 C 2924 2640 2901 2570 2919 2502 C 2953 2372 3069 2305 3197 2339 C 3273 2360 3350 2466 3350 2550 C 3350 2592 3316 2661 3274 2701 L 3230 2745 L 3230 2928 C 3230 3028 3234 3110 3238 3110 C 3243 3110 3320 3037 3408 2948 L 3570 2785 L 3570 2113 C 3570 1743 3567 1440 3564 1440 C 3547 1440 3334 1560 3235 1625 C 2811 1906 2474 2317 2290 2780 C 2218 2961 2158 3190 2129 3400 C 2113 3513 2113 3890 2129 4014 C 2155 4219 2220 4470 2299 4668 C 2362 4827 2491 5049 2618 5220 C 2716 5351 3002 5645 3024 5637 C 3035 5633 3037 5509 3033 4873 L 3028 4115 L 2990 4077 C 2940 4028 2920 3983 2920 3921 C 2920 3856 2937 3815 2984 3768 C 3110 3642 3325 3723 3338 3900 C 3344 3976 3328 4018 3276 4072 L 3232 4116 L 3228 4954 C 3225 5784 3225 5793 3245 5804 C 3256 5810 3267 5818 3270 5821 C 3294 5849 3576 5996 3691 6040 C 3721 6051 3754 6065 3765 6070 C 3776 6075 3819 6089 3860 6100 C 3901 6112 3951 6126 3970 6131 C 4165 6187 4540 6228 4540 6193 C 4540 6187 4536 6178 4530 6175 C 4511 6163 4520 6151 4542 6159 C 4559 6165 4565 6176 4567 6204 L 4569 6241 L 4472 6238 C 4419 6236 4373 6232 4370 6229 C 4367 6225 4349 6221 4330 6219 C 4311 6217 4289 6212 4283 6207 C 4274 6200 4270 6204 4270 6219 C 4270 6234 4264 6240 4248 6240 C 4221 6239 4158 6212 4180 6211 C 4193 6210 4193 6209 4180 6200 C 4172 6195 4143 6191 4115 6192 L 4065 6193 L 4105 6200 L 4145 6207 L 4107 6209 C 4077 6210 4067 6206 4063 6191 C 4060 6180 4046 6170 4028 6166 C 3980 6157 3975 6159 3998 6179 C 4025 6202 4026 6210 4000 6210 C 3989 6210 3980 6206 3980 6201 C 3980 6196 3973 6184 3964 6176 C 3952 6164 3952 6160 3962 6159 C 3969 6158 3959 6154 3940 6150 C 3913 6143 3900 6146 3879 6161 C 3865 6171 3850 6177 3846 6173 C 3843 6170 3840 6172 3840 6178 C 3840 6184 3846 6195 3854 6203 C 3866 6215 3861 6217 3819 6217 C 3777 6218 3770 6215 3770 6199 C 3770 6178 3742 6173 3735 6193 C 3732 6199 3716 6206 3700 6207 C 3669 6209 3659 6196 3685 6186 C 3693 6183 3697 6174 3694 6165 C 3686 6146 3670 6145 3670 6165 C 3670 6177 3663 6179 3643 6174 C 3627 6170 3612 6163 3609 6157 C 3600 6145 3376 6148 3372 6161 C 3370 6166 3326 6170 3274 6170 C 3197 6170 3180 6173 3180 6185 C 3180 6193 3189 6200 3200 6200 C 3211 6200 3220 6205 3220 6211 C 3220 6217 3232 6220 3248 6217 C 3263 6215 3269 6215 3263 6217 C 3256 6220 3250 6225 3250 6230 C 3250 6242 3298 6248 3308 6238 C 3322 6224 3363 6232 3368 6249 C 3372 6260 3366 6261 3344 6256 L 3315 6249 L 3336 6269 C 3350 6281 3366 6287 3379 6283 C 3393 6279 3402 6283 3407 6296 C 3410 6307 3418 6318 3424 6322 C 3430 6326 3432 6331 3429 6334 C 3426 6337 3375 6315 3315 6284 z M 5615 6160 C 5612 6155 5601 6150 5592 6151 C 5578 6151 5579 6153 5595 6160 C 5622 6171 5622 6171 5615 6160 z M 6139 6128 C 6152 6117 6157 6110 6149 6110 C 6129 6110 6070 6148 6070 6160 C 6070 6171 6097 6158 6139 6128 z M 3095 6120 C 3098 6115 3094 6110 3085 6110 C 3076 6110 3072 6115 3075 6120 C 3078 6126 3083 6130 3085 6130 C 3087 6130 3092 6126 3095 6120 z M 3143 6113 C 3136 6111 3124 6111 3118 6113 C 3111 6116 3116 6118 3130 6118 C 3144 6118 3149 6116 3143 6113 z M 3040 6100 C 3040 6095 3036 6090 3030 6090 C 3025 6090 3020 6095 3020 6100 C 3020 6106 3025 6110 3030 6110 C 3036 6110 3040 6106 3040 6100 z M 3744 6104 C 3764 6096 3765 6080 3746 6080 C 3739 6080 3717 6087 3699 6095 L 3665 6109 L 3697 6110 C 3714 6110 3735 6107 3744 6104 z M 5870 6090 C 5870 6070 5865 6069 5773 6072 C 5689 6075 5675 6078 5672 6093 C 5669 6108 5679 6110 5769 6110 C 5864 6110 5870 6109 5870 6090 z M 5570 6090 C 5570 6085 5563 6080 5555 6080 C 5547 6080 5540 6085 5540 6090 C 5540 6096 5547 6100 5555 6100 C 5563 6100 5570 6096 5570 6090 z M 6030 6095 C 6030 6093 6021 6086 6010 6080 C 5988 6068 5966 6075 5975 6091 C 5981 6100 6030 6104 6030 6095 z M 5555 6052 C 5548 6044 5510 6062 5515 6071 C 5519 6076 5529 6074 5540 6068 C 5551 6061 5557 6054 5555 6052 z M 3017 6054 C 3014 6051 3005 6050 2998 6053 C 2990 6056 2993 6059 3004 6059 C 3015 6060 3021 6057 3017 6054 z M 3630 6056 C 3630 6054 3623 6050 3615 6046 C 3607 6043 3600 6045 3600 6050 C 3600 6056 3607 6060 3615 6060 C 3623 6060 3630 6058 3630 6056 z M 6240 6038 C 6258 6019 6262 6018 6270 6030 C 6277 6041 6280 6041 6280 6032 C 6280 6025 6273 6017 6264 6013 C 6245 6006 6200 6029 6200 6047 C 6200 6067 6217 6063 6240 6038 z M 3470 5990 C 3470 5985 3461 5980 3451 5980 C 3440 5980 3428 5985 3425 5990 C 3421 5996 3430 6000 3444 6000 C 3458 6000 3470 5996 3470 5990 z M 6410 5930 C 6410 5925 6406 5920 6401 5920 C 6395 5920 6388 5925 6385 5930 C 6382 5936 6386 5940 6394 5940 C 6403 5940 6410 5936 6410 5930 z M 5958 5862 C 5960 5855 5956 5852 5946 5856 C 5937 5859 5930 5867 5930 5872 C 5930 5885 5953 5877 5958 5862 z" stroke-linecap="round" />
</g>
		<g transform="matrix(0.13 0 0 -0.13 238.5 -388.04)"  >
<path style="stroke: none; stroke-width: 1; stroke-dasharray: none; stroke-linecap: butt; stroke-dashoffset: 0; stroke-linejoin: miter; stroke-miterlimit: 4; fill: rgb(6,149,215); fill-rule: nonzero; opacity: 1;" vector-effect="non-scaling-stroke"  transform=" translate(-5798.75, -6324.44)" d="M 5784 6325 C 5795 6317 5811 6310 5819 6310 C 5829 6311 5826 6316 5810 6325 C 5777 6344 5760 6343 5784 6325 z" stroke-linecap="round" />
</g>
		<g transform="matrix(0.13 0 0 -0.13 -25.41 -387.43)"  >
<path style="stroke: none; stroke-width: 1; stroke-dasharray: none; stroke-linecap: butt; stroke-dashoffset: 0; stroke-linejoin: miter; stroke-miterlimit: 4; fill: rgb(6,149,215); fill-rule: nonzero; opacity: 1;" vector-effect="non-scaling-stroke"  transform=" translate(-3820, -6320)" d="M 3770 6320 C 3770 6315 3793 6310 3820 6310 C 3848 6310 3870 6315 3870 6320 C 3870 6326 3848 6330 3820 6330 C 3793 6330 3770 6326 3770 6320 z" stroke-linecap="round" />
</g>
		<g transform="matrix(0.13 0 0 -0.13 -54.7 -386.64)"  >
<path style="stroke: none; stroke-width: 1; stroke-dasharray: none; stroke-linecap: butt; stroke-dashoffset: 0; stroke-linejoin: miter; stroke-miterlimit: 4; fill: rgb(6,149,215); fill-rule: nonzero; opacity: 1;" vector-effect="non-scaling-stroke"  transform=" translate(-3600.18, -6314.25)" d="M 3563 6313 C 3583 6311 3617 6311 3638 6313 C 3658 6315 3641 6317 3600 6317 C 3559 6317 3542 6315 3563 6313 z" stroke-linecap="round" />
</g>
		<g transform="matrix(0.13 0 0 -0.13 1.33 -386.64)"  >
<path style="stroke: none; stroke-width: 1; stroke-dasharray: none; stroke-linecap: butt; stroke-dashoffset: 0; stroke-linejoin: miter; stroke-miterlimit: 4; fill: rgb(6,149,215); fill-rule: nonzero; opacity: 1;" vector-effect="non-scaling-stroke"  transform=" translate(-4020.18, -6314.25)" d="M 3993 6313 C 4008 6311 4032 6311 4048 6313 C 4063 6315 4050 6317 4020 6317 C 3990 6317 3977 6315 3993 6313 z" stroke-linecap="round" />
</g>
		<g transform="matrix(0.13 0 0 -0.13 23.19 -384.22)"  >
<path style="stroke: none; stroke-width: 1; stroke-dasharray: none; stroke-linecap: butt; stroke-dashoffset: 0; stroke-linejoin: miter; stroke-miterlimit: 4; fill: rgb(6,149,215); fill-rule: nonzero; opacity: 1;" vector-effect="non-scaling-stroke"  transform=" translate(-4183.63, -6295.78)" d="M 4170 6294 C 4170 6285 4175 6280 4182 6282 C 4200 6288 4203 6310 4186 6310 C 4177 6310 4170 6303 4170 6294 z" stroke-linecap="round" />
</g>
		<g transform="matrix(0.13 0 0 -0.13 254.03 -379.19)"  >
<path style="stroke: none; stroke-width: 1; stroke-dasharray: none; stroke-linecap: butt; stroke-dashoffset: 0; stroke-linejoin: miter; stroke-miterlimit: 4; fill: rgb(6,149,215); fill-rule: nonzero; opacity: 1;" vector-effect="non-scaling-stroke"  transform=" translate(-5915.66, -6257.74)" d="M 5870 6271 C 5870 6257 5876 6254 5895 6258 C 5914 6261 5920 6258 5920 6245 C 5920 6233 5925 6230 5936 6234 C 5945 6237 5954 6240 5956 6240 C 5968 6240 5958 6259 5943 6265 C 5887 6287 5870 6289 5870 6271 z" stroke-linecap="round" />
</g>
		<g transform="matrix(0.13 0 0 -0.13 -72.73 -375.55)"  >
<path style="stroke: none; stroke-width: 1; stroke-dasharray: none; stroke-linecap: butt; stroke-dashoffset: 0; stroke-linejoin: miter; stroke-miterlimit: 4; fill: rgb(6,149,215); fill-rule: nonzero; opacity: 1;" vector-effect="non-scaling-stroke"  transform=" translate(-3464.88, -6230.65)" d="M 3433 6235 C 3415 6215 3416 6214 3453 6212 C 3490 6210 3516 6223 3506 6239 C 3496 6255 3447 6252 3433 6235 z" stroke-linecap="round" />
</g>
		<g transform="matrix(0.13 0 0 -0.13 -18.67 -373.93)"  >
<path style="stroke: none; stroke-width: 1; stroke-dasharray: none; stroke-linecap: butt; stroke-dashoffset: 0; stroke-linejoin: miter; stroke-miterlimit: 4; fill: rgb(6,149,215); fill-rule: nonzero; opacity: 1;" vector-effect="non-scaling-stroke"  transform=" translate(-3871.71, -6218.5)" d="M 3870 6230 C 3922 6227 3957 6223 3948 6222 C 3923 6219 3926 6200 3951 6200 C 3965 6200 3970 6205 3968 6218 C 3965 6233 3952 6235 3870 6236 L 3775 6237 L 3870 6230 z" stroke-linecap="round" />
</g>
		<g transform="matrix(0.13 0 0 -0.13 264.92 -374.73)"  >
<path style="stroke: none; stroke-width: 1; stroke-dasharray: none; stroke-linecap: butt; stroke-dashoffset: 0; stroke-linejoin: miter; stroke-miterlimit: 4; fill: rgb(6,149,215); fill-rule: nonzero; opacity: 1;" vector-effect="non-scaling-stroke"  transform=" translate(-5996.84, -6224.63)" d="M 5984 6225 C 5995 6217 6011 6210 6019 6210 C 6028 6210 6022 6217 6006 6225 C 5970 6244 5959 6244 5984 6225 z" stroke-linecap="round" />
</g>
		<g transform="matrix(0.13 0 0 -0.13 -53.83 -369.45)"  >
<path style="stroke: none; stroke-width: 1; stroke-dasharray: none; stroke-linecap: butt; stroke-dashoffset: 0; stroke-linejoin: miter; stroke-miterlimit: 4; fill: rgb(6,149,215); fill-rule: nonzero; opacity: 1;" vector-effect="non-scaling-stroke"  transform=" translate(-3606.71, -6184.81)" d="M 3575 6200 C 3579 6194 3576 6183 3570 6175 C 3560 6163 3560 6160 3572 6160 C 3580 6160 3590 6164 3596 6169 C 3601 6174 3615 6180 3628 6182 C 3652 6185 3659 6202 3639 6209 C 3633 6211 3630 6208 3634 6202 C 3638 6195 3630 6194 3608 6201 C 3567 6212 3567 6212 3575 6200 z" stroke-linecap="round" />
</g>
		<g transform="matrix(0.13 0 0 -0.13 176.67 -370.02)"  >
<path style="stroke: none; stroke-width: 1; stroke-dasharray: none; stroke-linecap: butt; stroke-dashoffset: 0; stroke-linejoin: miter; stroke-miterlimit: 4; fill: rgb(6,149,215); fill-rule: nonzero; opacity: 1;" vector-effect="non-scaling-stroke"  transform=" translate(-5335.23, -6189.17)" d="M 5318 6203 C 5296 6197 5294 6170 5316 6170 C 5337 6170 5370 6188 5370 6200 C 5370 6210 5349 6211 5318 6203 z" stroke-linecap="round" />
</g>
		<g transform="matrix(0.13 0 0 -0.13 180.06 -364.77)"  >
<path style="stroke: none; stroke-width: 1; stroke-dasharray: none; stroke-linecap: butt; stroke-dashoffset: 0; stroke-linejoin: miter; stroke-miterlimit: 4; fill: rgb(6,149,215); fill-rule: nonzero; opacity: 1;" vector-effect="non-scaling-stroke"  transform=" translate(-5360, -6150)" d="M 5350 6150 C 5350 6145 5355 6140 5360 6140 C 5366 6140 5370 6145 5370 6150 C 5370 6156 5366 6160 5360 6160 C 5355 6160 5350 6156 5350 6150 z" stroke-linecap="round" />
</g>
		<g transform="matrix(0.13 0 0 -0.13 73.39 -362.1)"  >
<path style="stroke: none; stroke-width: 1; stroke-dasharray: none; stroke-linecap: butt; stroke-dashoffset: 0; stroke-linejoin: miter; stroke-miterlimit: 4; fill: rgb(6,149,215); fill-rule: nonzero; opacity: 1;" vector-effect="non-scaling-stroke"  transform=" translate(-4560, -6130)" d="M 4550 6130 C 4550 6125 4555 6120 4560 6120 C 4566 6120 4570 6125 4570 6130 C 4570 6136 4566 6140 4560 6140 C 4555 6140 4550 6136 4550 6130 z" stroke-linecap="round" />
</g>
		<g transform="matrix(0.13 0 0 -0.13 -443.88 317.2)"  >
<path style="stroke: none; stroke-width: 1; stroke-dasharray: none; stroke-linecap: butt; stroke-dashoffset: 0; stroke-linejoin: miter; stroke-miterlimit: 4; fill: rgb(6,149,215); fill-rule: nonzero; opacity: 1;" vector-effect="non-scaling-stroke"  transform=" translate(-684.33, -1029.24)" d="M 599 1261 C 551 1234 528 1198 532 1152 C 535 1117 537 1115 571 1112 C 603 1109 610 1113 629 1145 C 640 1164 656 1183 665 1186 C 689 1196 728 1182 740 1160 C 758 1127 729 1081 632 988 C 509 869 496 841 546 801 C 570 782 586 780 699 780 C 832 780 850 785 850 825 C 850 862 830 870 743 870 C 697 870 660 873 660 878 C 660 882 696 921 741 965 C 785 1009 828 1057 836 1072 C 866 1129 844 1206 786 1251 C 745 1283 649 1288 599 1261 z" stroke-linecap="round" />
</g>
		<g transform="matrix(0.13 0 0 -0.13 -284.07 317.34)"  >
<path style="stroke: none; stroke-width: 1; stroke-dasharray: none; stroke-linecap: butt; stroke-dashoffset: 0; stroke-linejoin: miter; stroke-miterlimit: 4; fill: rgb(6,149,215); fill-rule: nonzero; opacity: 1;" vector-effect="non-scaling-stroke"  transform=" translate(-1883.96, -1028.27)" d="M 1825 1256 C 1763 1227 1728 1190 1701 1127 C 1630 962 1752 778 1930 778 C 2031 778 2109 836 2080 890 C 2067 915 2037 914 1966 887 C 1936 876 1919 875 1896 883 C 1775 923 1753 1087 1859 1157 C 1901 1185 1949 1186 2001 1160 C 2045 1137 2074 1144 2085 1180 C 2110 1260 1939 1310 1825 1256 z" stroke-linecap="round" />
</g>
		<g transform="matrix(0.13 0 0 -0.13 -219.47 317.33)"  >
<path style="stroke: none; stroke-width: 1; stroke-dasharray: none; stroke-linecap: butt; stroke-dashoffset: 0; stroke-linejoin: miter; stroke-miterlimit: 4; fill: rgb(6,149,215); fill-rule: nonzero; opacity: 1;" vector-effect="non-scaling-stroke"  transform=" translate(-2369.32, -1028.22)" d="M 2262 1254 C 2174 1210 2130 1134 2130 1024 C 2130 917 2189 830 2287 791 C 2406 744 2559 820 2601 947 C 2616 994 2608 1106 2585 1149 C 2525 1266 2380 1313 2262 1254 z M 2436 1161 C 2523 1108 2521 942 2433 897 C 2349 853 2268 893 2239 990 C 2213 1077 2281 1180 2363 1180 C 2386 1180 2419 1172 2436 1161 z" stroke-linecap="round" />
</g>
		<g transform="matrix(0.13 0 0 -0.13 -390.22 318.24)"  >
<path style="stroke: none; stroke-width: 1; stroke-dasharray: none; stroke-linecap: butt; stroke-dashoffset: 0; stroke-linejoin: miter; stroke-miterlimit: 4; fill: rgb(6,149,215); fill-rule: nonzero; opacity: 1;" vector-effect="non-scaling-stroke"  transform=" translate(-1087.18, -1021.45)" d="M 926 1254 C 917 1246 910 1231 909 1222 C 906 1155 912 805 917 794 C 926 771 968 765 990 785 C 1005 798 1010 819 1012 874 L 1015 945 L 1092 950 C 1175 956 1205 971 1244 1024 C 1275 1065 1273 1154 1241 1199 C 1203 1251 1152 1270 1038 1270 C 963 1270 938 1266 926 1254 z M 1145 1155 C 1175 1125 1176 1101 1149 1066 C 1131 1043 1121 1040 1069 1040 L 1010 1040 L 1010 1103 C 1010 1138 1013 1170 1017 1173 C 1020 1177 1045 1180 1072 1180 C 1111 1180 1126 1175 1145 1155 z" stroke-linecap="round" />
</g>
		<g transform="matrix(0.13 0 0 -0.13 -336.03 317.78)"  >
<path style="stroke: none; stroke-width: 1; stroke-dasharray: none; stroke-linecap: butt; stroke-dashoffset: 0; stroke-linejoin: miter; stroke-miterlimit: 4; fill: rgb(6,149,215); fill-rule: nonzero; opacity: 1;" vector-effect="non-scaling-stroke"  transform=" translate(-1493.35, -1025)" d="M 1347 1258 C 1332 1247 1329 1218 1324 1050 C 1319 855 1324 806 1353 788 C 1360 784 1427 780 1502 780 C 1632 780 1640 781 1654 802 C 1667 821 1668 827 1656 845 C 1644 862 1629 866 1539 870 L 1435 875 L 1432 928 C 1430 965 1433 980 1442 982 C 1449 983 1480 984 1511 985 C 1577 987 1590 993 1590 1024 C 1590 1058 1568 1071 1503 1074 C 1471 1076 1441 1078 1437 1079 C 1433 1079 1430 1101 1432 1128 L 1435 1175 L 1538 1180 C 1614 1184 1643 1189 1650 1200 C 1664 1222 1662 1236 1644 1254 C 1632 1267 1603 1270 1496 1270 C 1406 1270 1358 1266 1347 1258 z" stroke-linecap="round" />
</g>
		<g transform="matrix(0.13 0 0 -0.13 -447.6 400.81)"  >
<path style="stroke: none; stroke-width: 1; stroke-dasharray: none; stroke-linecap: butt; stroke-dashoffset: 0; stroke-linejoin: miter; stroke-miterlimit: 4; fill: rgb(6,149,215); fill-rule: nonzero; opacity: 1;" vector-effect="non-scaling-stroke"  transform=" translate(-654.45, -406.07)" d="M 570 475 C 570 451 573 450 624 450 C 654 450 682 446 685 440 C 689 434 668 430 631 430 L 570 430 L 570 376 C 570 336 574 321 586 316 C 608 307 620 317 620 346 C 620 368 624 370 668 370 C 735 370 742 377 738 441 L 735 495 L 653 498 C 570 501 570 501 570 475 z" stroke-linecap="round" />
</g>
		<g transform="matrix(0.13 0 0 -0.13 -422.84 400.93)"  >
<path style="stroke: none; stroke-width: 1; stroke-dasharray: none; stroke-linecap: butt; stroke-dashoffset: 0; stroke-linejoin: miter; stroke-miterlimit: 4; fill: rgb(6,149,215); fill-rule: nonzero; opacity: 1;" vector-effect="non-scaling-stroke"  transform=" translate(-840, -405.18)" d="M 760 410 C 760 307 760 307 860 312 C 911 315 915 317 915 340 C 915 360 909 366 887 368 C 864 371 861 375 866 395 C 870 412 865 422 849 434 C 826 450 826 450 873 450 C 916 450 920 452 920 475 C 920 500 919 500 840 500 L 760 500 L 760 410 z" stroke-linecap="round" />
</g>
		<g transform="matrix(0.13 0 0 -0.13 -399.59 400.69)"  >
<path style="stroke: none; stroke-width: 1; stroke-dasharray: none; stroke-linecap: butt; stroke-dashoffset: 0; stroke-linejoin: miter; stroke-miterlimit: 4; fill: rgb(6,149,215); fill-rule: nonzero; opacity: 1;" vector-effect="non-scaling-stroke"  transform=" translate(-1014.49, -407.04)" d="M 937 494 C 928 484 928 320 938 319 C 974 314 1082 315 1090 320 C 1097 324 1100 359 1098 411 L 1095 495 L 1020 498 C 978 499 941 498 937 494 z M 1048 408 C 1051 371 1051 370 1016 370 C 982 370 980 372 980 403 C 980 444 987 452 1020 448 C 1041 445 1045 439 1048 408 z" stroke-linecap="round" />
</g>
		<g transform="matrix(0.13 0 0 -0.13 -373.69 400.63)"  >
<path style="stroke: none; stroke-width: 1; stroke-dasharray: none; stroke-linecap: butt; stroke-dashoffset: 0; stroke-linejoin: miter; stroke-miterlimit: 4; fill: rgb(6,149,215); fill-rule: nonzero; opacity: 1;" vector-effect="non-scaling-stroke"  transform=" translate(-1208.85, -407.5)" d="M 1120 475 C 1120 451 1123 450 1180 450 C 1257 450 1259 432 1183 428 L 1125 425 L 1125 370 C 1125 322 1127 315 1145 315 C 1159 315 1166 323 1168 343 C 1171 368 1175 370 1218 370 C 1244 370 1271 374 1278 378 C 1295 389 1302 427 1295 468 L 1289 500 L 1205 500 C 1121 500 1120 500 1120 475 z" stroke-linecap="round" />
</g>
		<g transform="matrix(0.13 0 0 -0.13 -338.38 400.85)"  >
<path style="stroke: none; stroke-width: 1; stroke-dasharray: none; stroke-linecap: butt; stroke-dashoffset: 0; stroke-linejoin: miter; stroke-miterlimit: 4; fill: rgb(6,149,215); fill-rule: nonzero; opacity: 1;" vector-effect="non-scaling-stroke"  transform=" translate(-1475.6, -405.74)" d="M 1315 487 C 1312 480 1310 438 1312 394 L 1315 315 L 1383 312 C 1423 310 1457 314 1465 320 C 1473 327 1480 327 1484 321 C 1487 316 1523 312 1563 313 C 1633 315 1635 316 1635 340 C 1635 360 1629 366 1608 368 C 1586 371 1582 376 1583 398 C 1585 419 1580 426 1563 428 C 1520 434 1540 450 1590 450 C 1637 450 1640 452 1640 475 C 1640 500 1639 500 1560 500 L 1480 500 L 1480 423 C 1480 363 1477 349 1468 358 C 1461 365 1437 370 1414 370 C 1371 370 1371 370 1365 413 C 1361 437 1360 465 1362 476 C 1366 499 1323 510 1315 487 z" stroke-linecap="round" />
</g>
		<g transform="matrix(0.13 0 0 -0.13 -285.17 400.87)"  >
<path style="stroke: none; stroke-width: 1; stroke-dasharray: none; stroke-linecap: butt; stroke-dashoffset: 0; stroke-linejoin: miter; stroke-miterlimit: 4; fill: rgb(6,149,215); fill-rule: nonzero; opacity: 1;" vector-effect="non-scaling-stroke"  transform=" translate(-1872.87, -405.71)" d="M 1816 424 C 1796 382 1780 342 1780 335 C 1780 314 1811 308 1830 325 C 1852 345 1894 344 1926 324 C 1945 311 1954 310 1962 318 C 1971 327 1964 351 1938 412 C 1908 482 1898 496 1876 498 C 1854 501 1847 493 1816 424 z M 1880 404 C 1880 396 1875 392 1870 395 C 1864 399 1862 406 1865 411 C 1874 425 1880 422 1880 404 z" stroke-linecap="round" />
</g>
		<g transform="matrix(0.13 0 0 -0.13 -258.88 400.69)"  >
<path style="stroke: none; stroke-width: 1; stroke-dasharray: none; stroke-linecap: butt; stroke-dashoffset: 0; stroke-linejoin: miter; stroke-miterlimit: 4; fill: rgb(6,149,215); fill-rule: nonzero; opacity: 1;" vector-effect="non-scaling-stroke"  transform=" translate(-2070, -407)" d="M 1987 493 C 1983 490 1980 450 1980 404 C 1980 341 1983 321 1995 316 C 2024 305 2040 321 2040 359 L 2040 395 L 2078 351 C 2109 316 2120 309 2138 314 C 2159 321 2160 327 2160 411 C 2160 499 2160 500 2135 500 C 2113 500 2110 496 2110 460 C 2110 438 2107 420 2103 420 C 2098 421 2083 439 2068 460 C 2042 498 2006 512 1987 493 z" stroke-linecap="round" />
</g>
		<g transform="matrix(0.13 0 0 -0.13 -233.28 400.8)"  >
<path style="stroke: none; stroke-width: 1; stroke-dasharray: none; stroke-linecap: butt; stroke-dashoffset: 0; stroke-linejoin: miter; stroke-miterlimit: 4; fill: rgb(6,149,215); fill-rule: nonzero; opacity: 1;" vector-effect="non-scaling-stroke"  transform=" translate(-2261.9, -406.19)" d="M 2178 495 C 2175 492 2174 480 2177 470 C 2181 455 2193 450 2239 448 L 2295 445 L 2298 408 C 2301 371 2301 370 2266 370 C 2236 370 2231 373 2228 398 C 2226 417 2219 426 2202 428 C 2180 431 2179 429 2182 373 L 2185 315 L 2257 314 C 2297 314 2334 317 2340 320 C 2347 324 2350 359 2348 411 L 2345 495 L 2265 498 C 2220 499 2181 498 2178 495 z" stroke-linecap="round" />
</g>
		<g transform="matrix(0.13 0 0 -0.13 -190.09 400.78)"  >
<path style="stroke: none; stroke-width: 1; stroke-dasharray: none; stroke-linecap: butt; stroke-dashoffset: 0; stroke-linejoin: miter; stroke-miterlimit: 4; fill: rgb(6,149,215); fill-rule: nonzero; opacity: 1;" vector-effect="non-scaling-stroke"  transform=" translate(-2585.76, -406.3)" d="M 2500 475 C 2500 451 2503 450 2554 450 C 2629 450 2636 432 2563 428 L 2505 425 L 2502 376 C 2500 349 2503 323 2508 318 C 2522 304 2549 319 2552 343 C 2555 362 2563 366 2607 370 C 2635 373 2661 378 2663 380 C 2669 386 2673 432 2671 473 L 2670 500 L 2585 500 C 2501 500 2500 500 2500 475 z" stroke-linecap="round" />
</g>
		<g transform="matrix(0.13 0 0 -0.13 -152.51 400.81)"  >
<path style="stroke: none; stroke-width: 1; stroke-dasharray: none; stroke-linecap: butt; stroke-dashoffset: 0; stroke-linejoin: miter; stroke-miterlimit: 4; fill: rgb(6,149,215); fill-rule: nonzero; opacity: 1;" vector-effect="non-scaling-stroke"  transform=" translate(-2870, -406.1)" d="M 2690 475 C 2690 451 2693 450 2744 450 C 2819 450 2826 432 2753 428 L 2695 425 L 2692 373 C 2689 329 2692 321 2709 315 C 2737 306 2750 316 2750 346 C 2750 377 2764 377 2788 343 C 2807 317 2811 316 2916 314 C 2978 313 3030 316 3038 322 C 3054 336 3054 472 3038 488 C 3021 505 2883 504 2877 488 C 2873 478 2870 478 2859 488 C 2851 495 2817 500 2768 500 C 2691 500 2690 500 2690 475 z M 2990 410 C 2990 372 2988 370 2961 370 C 2940 370 2929 376 2925 390 C 2914 425 2928 450 2961 450 C 2988 450 2990 448 2990 410 z M 2870 363 C 2870 338 2869 337 2854 352 C 2845 361 2841 373 2844 379 C 2857 399 2870 390 2870 363 z" stroke-linecap="round" />
</g>
		<g transform="matrix(0.13 0 0 -0.13 -114.29 400.81)"  >
<path style="stroke: none; stroke-width: 1; stroke-dasharray: none; stroke-linecap: butt; stroke-dashoffset: 0; stroke-linejoin: miter; stroke-miterlimit: 4; fill: rgb(6,149,215); fill-rule: nonzero; opacity: 1;" vector-effect="non-scaling-stroke"  transform=" translate(-3154.26, -406.09)" d="M 3070 475 C 3070 451 3073 450 3125 450 C 3175 450 3180 448 3186 425 C 3195 387 3184 370 3151 370 C 3126 370 3121 374 3118 398 C 3116 417 3109 426 3092 428 C 3070 431 3069 429 3072 373 L 3075 315 L 3147 313 C 3196 312 3222 316 3230 325 C 3236 333 3240 370 3238 417 L 3235 495 L 3153 498 C 3070 501 3070 501 3070 475 z" stroke-linecap="round" />
</g>
		<g transform="matrix(0.13 0 0 -0.13 -88.86 400.93)"  >
<path style="stroke: none; stroke-width: 1; stroke-dasharray: none; stroke-linecap: butt; stroke-dashoffset: 0; stroke-linejoin: miter; stroke-miterlimit: 4; fill: rgb(6,149,215); fill-rule: nonzero; opacity: 1;" vector-effect="non-scaling-stroke"  transform=" translate(-3345.01, -405.12)" d="M 3260 411 C 3260 309 3261 308 3347 311 C 3433 313 3430 310 3430 411 C 3430 499 3430 500 3405 500 C 3381 500 3380 498 3380 435 L 3380 370 L 3345 370 L 3310 370 L 3310 435 C 3310 498 3309 500 3285 500 C 3260 500 3260 499 3260 411 z" stroke-linecap="round" />
</g>
		<g transform="matrix(0.13 0 0 -0.13 -63.48 400.95)"  >
<path style="stroke: none; stroke-width: 1; stroke-dasharray: none; stroke-linecap: butt; stroke-dashoffset: 0; stroke-linejoin: miter; stroke-miterlimit: 4; fill: rgb(6,149,215); fill-rule: nonzero; opacity: 1;" vector-effect="non-scaling-stroke"  transform=" translate(-3535.36, -405.05)" d="M 3457 494 C 3444 481 3449 333 3463 322 C 3475 312 3572 308 3603 316 C 3628 324 3627 390 3602 390 C 3592 390 3579 385 3573 379 C 3567 373 3550 370 3534 372 C 3508 375 3505 379 3505 410 C 3505 438 3509 446 3527 448 C 3539 450 3563 444 3580 435 C 3606 421 3611 421 3616 434 C 3619 442 3620 459 3618 472 C 3615 493 3610 495 3540 498 C 3498 499 3461 498 3457 494 z" stroke-linecap="round" />
</g>
		<g transform="matrix(0.13 0 0 -0.13 -27.2 400.97)"  >
<path style="stroke: none; stroke-width: 1; stroke-dasharray: none; stroke-linecap: butt; stroke-dashoffset: 0; stroke-linejoin: miter; stroke-miterlimit: 4; fill: rgb(6,149,215); fill-rule: nonzero; opacity: 1;" vector-effect="non-scaling-stroke"  transform=" translate(-3809.58, -404.83)" d="M 3642 472 C 3644 453 3651 445 3665 445 C 3683 445 3685 437 3688 382 C 3690 338 3695 317 3706 313 C 3734 302 3750 330 3750 391 C 3750 450 3750 450 3780 450 C 3807 450 3810 447 3810 420 C 3810 398 3816 387 3832 381 L 3854 373 L 3831 367 C 3814 363 3809 355 3812 338 C 3815 317 3821 315 3875 312 C 3974 308 3980 311 3980 375 C 3980 435 3988 428 3890 443 C 3876 446 3891 448 3923 449 C 3977 450 3980 451 3980 475 L 3980 499 L 3809 499 L 3639 499 L 3642 472 z" stroke-linecap="round" />
</g>
		<g transform="matrix(0.13 0 0 -0.13 51.84 400.89)"  >
<path style="stroke: none; stroke-width: 1; stroke-dasharray: none; stroke-linecap: butt; stroke-dashoffset: 0; stroke-linejoin: miter; stroke-miterlimit: 4; fill: rgb(6,149,215); fill-rule: nonzero; opacity: 1;" vector-effect="non-scaling-stroke"  transform=" translate(-4405, -405.43)" d="M 4137 493 C 4133 490 4130 450 4130 404 C 4130 344 4134 321 4144 317 C 4173 306 4353 315 4358 328 C 4363 343 4422 344 4437 329 C 4449 317 4619 305 4655 314 C 4677 320 4680 325 4680 370 C 4680 425 4677 429 4612 440 L 4565 448 L 4623 449 C 4677 450 4680 451 4680 475 C 4680 500 4679 500 4595 500 L 4510 500 L 4510 445 C 4510 412 4515 388 4523 383 C 4532 377 4530 370 4514 353 L 4493 330 L 4459 415 C 4427 497 4424 501 4396 498 C 4371 495 4364 487 4335 415 C 4311 357 4300 340 4295 353 C 4290 363 4277 370 4261 370 C 4236 370 4234 373 4238 400 C 4242 425 4239 430 4221 430 C 4181 430 4200 447 4242 448 C 4289 450 4306 461 4297 484 C 4292 497 4275 500 4217 500 C 4176 500 4140 497 4137 493 z" stroke-linecap="round" />
</g>
		<g transform="matrix(0.13 0 0 -0.13 106 400.63)"  >
<path style="stroke: none; stroke-width: 1; stroke-dasharray: none; stroke-linecap: butt; stroke-dashoffset: 0; stroke-linejoin: miter; stroke-miterlimit: 4; fill: rgb(6,149,215); fill-rule: nonzero; opacity: 1;" vector-effect="non-scaling-stroke"  transform=" translate(-4807, -407.5)" d="M 4702 408 L 4705 315 L 4810 315 L 4915 315 L 4915 340 C 4915 363 4910 365 4865 370 L 4815 375 L 4812 438 L 4809 500 L 4754 500 L 4699 500 L 4702 408 z" stroke-linecap="round" />
</g>
		<g transform="matrix(0.13 0 0 -0.13 126.98 400.94)"  >
<path style="stroke: none; stroke-width: 1; stroke-dasharray: none; stroke-linecap: butt; stroke-dashoffset: 0; stroke-linejoin: miter; stroke-miterlimit: 4; fill: rgb(6,149,215); fill-rule: nonzero; opacity: 1;" vector-effect="non-scaling-stroke"  transform=" translate(-4964.01, -405.09)" d="M 4870 491 C 4870 487 4886 463 4905 439 C 4931 406 4940 385 4940 357 C 4940 289 4993 297 4996 365 C 4996 388 5008 414 5028 439 C 5067 488 5068 500 5031 500 C 5013 500 4997 492 4987 478 L 4972 455 L 4948 478 C 4925 499 4870 509 4870 491 z" stroke-linecap="round" />
</g>
		<g transform="matrix(0.13 0 0 -0.13 172.47 401.06)"  >
<path style="stroke: none; stroke-width: 1; stroke-dasharray: none; stroke-linecap: butt; stroke-dashoffset: 0; stroke-linejoin: miter; stroke-miterlimit: 4; fill: rgb(6,149,215); fill-rule: nonzero; opacity: 1;" vector-effect="non-scaling-stroke"  transform=" translate(-5305, -404.18)" d="M 5227 494 C 5223 490 5220 450 5220 404 C 5220 312 5221 310 5308 310 C 5364 310 5390 324 5390 356 C 5390 384 5365 399 5347 381 C 5341 375 5321 370 5302 370 C 5270 370 5269 371 5272 408 C 5274 438 5279 446 5299 448 C 5312 450 5327 447 5333 441 C 5339 435 5355 430 5368 430 C 5388 430 5391 434 5388 463 L 5385 495 L 5310 498 C 5268 499 5231 498 5227 494 z" stroke-linecap="round" />
</g>
		<g transform="matrix(0.13 0 0 -0.13 197.88 401.06)"  >
<path style="stroke: none; stroke-width: 1; stroke-dasharray: none; stroke-linecap: butt; stroke-dashoffset: 0; stroke-linejoin: miter; stroke-miterlimit: 4; fill: rgb(6,149,215); fill-rule: nonzero; opacity: 1;" vector-effect="non-scaling-stroke"  transform=" translate(-5495.5, -404.18)" d="M 5417 494 C 5413 490 5410 450 5410 404 C 5410 339 5413 321 5426 316 C 5446 308 5509 308 5549 316 L 5581 323 L 5578 409 L 5575 495 L 5500 498 C 5458 499 5421 498 5417 494 z M 5530 410 C 5530 371 5529 370 5495 370 C 5461 370 5460 371 5460 410 C 5460 449 5461 450 5495 450 C 5529 450 5530 449 5530 410 z" stroke-linecap="round" />
</g>
		<g transform="matrix(0.13 0 0 -0.13 215.1 409.7)"  >
<path style="stroke: none; stroke-width: 1; stroke-dasharray: none; stroke-linecap: butt; stroke-dashoffset: 0; stroke-linejoin: miter; stroke-miterlimit: 4; fill: rgb(6,149,215); fill-rule: nonzero; opacity: 1;" vector-effect="non-scaling-stroke"  transform=" translate(-5623.11, -341.05)" d="M 5604 356 C 5595 332 5606 311 5627 314 C 5651 318 5652 363 5627 368 C 5618 370 5607 364 5604 356 z" stroke-linecap="round" />
</g>
</g>
</g>
<g transform="matrix(0 0 0 0 0 0)"  >
<g style=""   >
</g>
</g>
<g transform="matrix(0.66 0 0 0.66 453.51 176.32)" id="2287dcb5-e60f-4078-b4a1-183efe5df0c5"  >
<circle style="stroke: rgb(6,149,215); stroke-width: 0; stroke-dasharray: none; stroke-linecap: butt; stroke-dashoffset: 0; stroke-linejoin: miter; stroke-miterlimit: 4; fill: rgb(6,149,215); fill-rule: nonzero; opacity: 1;" vector-effect="non-scaling-stroke"  cx="0" cy="0" r="35" />
</g>
<g transform="matrix(0 0 0 0 0 0)"  >
<g style=""   >
</g>
</g>
<g transform="matrix(0 0 0 0 0 0)"  >
<g style=""   >
</g>
</g>
<g transform="matrix(0.66 0 0 0.66 476.24 165.95)" id="2287dcb5-e60f-4078-b4a1-183efe5df0c5"  >
<circle style="stroke: rgb(6,149,215); stroke-width: 0; stroke-dasharray: none; stroke-linecap: butt; stroke-dashoffset: 0; stroke-linejoin: miter; stroke-miterlimit: 4; fill: rgb(6,149,215); fill-rule: nonzero; opacity: 1;" vector-effect="non-scaling-stroke"  cx="0" cy="0" r="35" />
</g>
<g transform="matrix(0.66 0 0 0.66 496.52 160.53)" id="2287dcb5-e60f-4078-b4a1-183efe5df0c5"  >
<circle style="stroke: rgb(6,149,215); stroke-width: 0; stroke-dasharray: none; stroke-linecap: butt; stroke-dashoffset: 0; stroke-linejoin: miter; stroke-miterlimit: 4; fill: rgb(6,149,215); fill-rule: nonzero; opacity: 1;" vector-effect="non-scaling-stroke"  cx="0" cy="0" r="35" />
</g>
<g transform="matrix(0.66 0 0 0.66 653.02 144.83)" id="2287dcb5-e60f-4078-b4a1-183efe5df0c5"  >
<circle style="stroke: rgb(6,149,215); stroke-width: 0; stroke-dasharray: none; stroke-linecap: butt; stroke-dashoffset: 0; stroke-linejoin: miter; stroke-miterlimit: 4; fill: rgb(6,149,215); fill-rule: nonzero; opacity: 1;" vector-effect="non-scaling-stroke"  cx="0" cy="0" r="35" />
</g>
<g transform="matrix(0.66 0 0 0.66 673.3 147.12)" id="2287dcb5-e60f-4078-b4a1-183efe5df0c5"  >
<circle style="stroke: rgb(6,149,215); stroke-width: 0; stroke-dasharray: none; stroke-linecap: butt; stroke-dashoffset: 0; stroke-linejoin: miter; stroke-miterlimit: 4; fill: rgb(6,149,215); fill-rule: nonzero; opacity: 1;" vector-effect="non-scaling-stroke"  cx="0" cy="0" r="35" />
</g>
<g transform="matrix(0.66 0 0 0.66 696.15 151.98)" id="2287dcb5-e60f-4078-b4a1-183efe5df0c5"  >
<circle style="stroke: rgb(6,149,215); stroke-width: 0; stroke-dasharray: none; stroke-linecap: butt; stroke-dashoffset: 0; stroke-linejoin: miter; stroke-miterlimit: 4; fill: rgb(6,149,215); fill-rule: nonzero; opacity: 1;" vector-effect="non-scaling-stroke"  cx="0" cy="0" r="35" />
</g>
<g transform="matrix(0.66 0 0 0.66 713.86 156.84)" id="2287dcb5-e60f-4078-b4a1-183efe5df0c5"  >
<circle style="stroke: rgb(6,149,215); stroke-width: 0; stroke-dasharray: none; stroke-linecap: butt; stroke-dashoffset: 0; stroke-linejoin: miter; stroke-miterlimit: 4; fill: rgb(6,149,215); fill-rule: nonzero; opacity: 1;" vector-effect="non-scaling-stroke"  cx="0" cy="0" r="35" />
</g>
<g transform="matrix(0.66 0 0 0.66 734.14 164.27)" id="2287dcb5-e60f-4078-b4a1-183efe5df0c5"  >
<circle style="stroke: rgb(6,149,215); stroke-width: 0; stroke-dasharray: none; stroke-linecap: butt; stroke-dashoffset: 0; stroke-linejoin: miter; stroke-miterlimit: 4; fill: rgb(6,149,215); fill-rule: nonzero; opacity: 1;" vector-effect="non-scaling-stroke"  cx="0" cy="0" r="35" />
</g>
<g transform="matrix(0.66 0 0 0.66 762.13 174.27)" id="2287dcb5-e60f-4078-b4a1-183efe5df0c5"  >
<circle style="stroke: rgb(6,149,215); stroke-width: 0; stroke-dasharray: none; stroke-linecap: butt; stroke-dashoffset: 0; stroke-linejoin: miter; stroke-miterlimit: 4; fill: rgb(6,149,215); fill-rule: nonzero; opacity: 1;" vector-effect="non-scaling-stroke"  cx="0" cy="0" r="35" />
</g>
<g transform="matrix(0.66 0 0 0.66 516.8 152.54)" id="2287dcb5-e60f-4078-b4a1-183efe5df0c5"  >
<circle style="stroke: rgb(6,149,215); stroke-width: 0; stroke-dasharray: none; stroke-linecap: butt; stroke-dashoffset: 0; stroke-linejoin: miter; stroke-miterlimit: 4; fill: rgb(6,149,215); fill-rule: nonzero; opacity: 1;" vector-effect="non-scaling-stroke"  cx="0" cy="0" r="35" />
</g>
<g transform="matrix(0.66 0 0 0.66 611.61 139.41)" id="2287dcb5-e60f-4078-b4a1-183efe5df0c5"  >
<circle style="stroke: rgb(6,149,215); stroke-width: 0; stroke-dasharray: none; stroke-linecap: butt; stroke-dashoffset: 0; stroke-linejoin: miter; stroke-miterlimit: 4; fill: rgb(6,149,215); fill-rule: nonzero; opacity: 1;" vector-effect="non-scaling-stroke"  cx="0" cy="0" r="35" />
</g>
<g transform="matrix(0.66 0 0 0.66 629.32 141.7)" id="2287dcb5-e60f-4078-b4a1-183efe5df0c5"  >
<circle style="stroke: rgb(6,149,215); stroke-width: 0; stroke-dasharray: none; stroke-linecap: butt; stroke-dashoffset: 0; stroke-linejoin: miter; stroke-miterlimit: 4; fill: rgb(6,149,215); fill-rule: nonzero; opacity: 1;" vector-effect="non-scaling-stroke"  cx="0" cy="0" r="35" />
</g>
<g transform="matrix(0.66 0 0 0.66 608.48 156.84)" id="2287dcb5-e60f-4078-b4a1-183efe5df0c5"  >
<circle style="stroke: rgb(6,149,215); stroke-width: 0; stroke-dasharray: none; stroke-linecap: butt; stroke-dashoffset: 0; stroke-linejoin: miter; stroke-miterlimit: 4; fill: rgb(6,149,215); fill-rule: nonzero; opacity: 1;" vector-effect="non-scaling-stroke"  cx="0" cy="0" r="35" />
</g>
<g transform="matrix(0.66 0 0 0.66 562.78 147.12)" id="2287dcb5-e60f-4078-b4a1-183efe5df0c5"  >
<circle style="stroke: rgb(6,149,215); stroke-width: 0; stroke-dasharray: none; stroke-linecap: butt; stroke-dashoffset: 0; stroke-linejoin: miter; stroke-miterlimit: 4; fill: rgb(6,149,215); fill-rule: nonzero; opacity: 1;" vector-effect="non-scaling-stroke"  cx="0" cy="0" r="35" />
</g>
<g transform="matrix(0.66 0 0 0.66 585.63 149.41)" id="2287dcb5-e60f-4078-b4a1-183efe5df0c5"  >
<circle style="stroke: rgb(6,149,215); stroke-width: 0; stroke-dasharray: none; stroke-linecap: butt; stroke-dashoffset: 0; stroke-linejoin: miter; stroke-miterlimit: 4; fill: rgb(6,149,215); fill-rule: nonzero; opacity: 1;" vector-effect="non-scaling-stroke"  cx="0" cy="0" r="35" />
</g>
<g transform="matrix(0.66 0 0 0.66 540 149.69)" id="2287dcb5-e60f-4078-b4a1-183efe5df0c5"  >
<circle style="stroke: rgb(6,149,215); stroke-width: 0; stroke-dasharray: none; stroke-linecap: butt; stroke-dashoffset: 0; stroke-linejoin: miter; stroke-miterlimit: 4; fill: rgb(6,149,215); fill-rule: nonzero; opacity: 1;" vector-effect="non-scaling-stroke"  cx="0" cy="0" r="35" />
</g>
</svg>