<?xml version="1.0" encoding="UTF-8"?>
<svg width="855px" height="334px" viewBox="0 0 855 334" version="1.1" xmlns="http://www.w3.org/2000/svg" xmlns:xlink="http://www.w3.org/1999/xlink">
    <title>Qantara blue svg</title>
    <g id="Qantara-blue-svg" stroke="none" stroke-width="1" fill="none" fill-rule="evenodd">
        <g id="Group" transform="translate(0.000000, 14.901723)">
            <path d="M109,294.298277 C118,294.298277 125.6,292.698277 130,290.698277 L125.8,273.298277 C122,274.498277 117.4,275.498277 111.6,275.498277 C99,275.498277 87.2,271.298277 81.2,260.898277 C107.8,254.898277 125.2,230.498277 125.2,194.098277 C125.2,151.898277 101.6,126.898277 67.4,126.898277 C33.4,126.898277 9.8,151.898277 9.8,194.098277 C9.8,231.898277 28.4,256.498277 56.6,261.498277 C65,280.698277 83,294.298277 109,294.298277 Z M67.4,243.498277 C46.8,243.498277 33.6,224.698277 33.6,194.098277 C33.6,164.898277 46.8,147.098277 67.4,147.098277 C88,147.098277 101.2,164.898277 101.2,194.098277 C101.2,224.698277 88,243.498277 67.4,243.498277 Z M159,260.098277 L169.2,224.698277 L213.2,224.698277 L223.4,260.098277 L247.8,260.098277 L205.2,129.298277 L178,129.298277 L135.4,260.098277 L159,260.098277 Z M208,206.498277 L174.6,206.498277 L179.2,190.498277 C183.4,176.698277 187.2,161.898277 190.8,147.298277 L191.6,147.298277 C195.4,161.698277 199.2,176.698277 203.4,190.498277 L208,206.498277 Z M289.2,260.098277 L289.2,202.898277 C289.2,188.298277 287.2,172.498277 286.2,158.698277 L287,158.698277 L300.4,186.498277 L341.2,260.098277 L365,260.098277 L365,129.298277 L342.8,129.298277 L342.8,186.098277 C342.8,200.698277 344.8,217.298277 345.8,230.698277 L345,230.698277 L331.6,202.898277 L290.8,129.298277 L267,129.298277 L267,260.098277 L289.2,260.098277 Z M450.8,260.098277 L450.8,148.898277 L488.6,148.898277 L488.6,129.298277 L389.8,129.298277 L389.8,148.898277 L427.6,148.898277 L427.6,260.098277 L450.8,260.098277 Z M512,260.098277 L522.2,224.698277 L566.2,224.698277 L576.4,260.098277 L600.8,260.098277 L558.2,129.298277 L531,129.298277 L488.4,260.098277 L512,260.098277 Z M561,206.498277 L527.6,206.498277 L532.2,190.498277 C536.4,176.698277 540.2,161.898277 543.8,147.298277 L544.6,147.298277 C548.4,161.698277 552.2,176.698277 556.4,190.498277 L561,206.498277 Z M643.2,260.098277 L643.2,208.898277 L663.2,208.898277 L691.4,260.098277 L717.4,260.098277 L686.2,205.498277 C701.8,200.098277 712.2,188.098277 712.2,168.098277 C712.2,138.898277 691.4,129.298277 664.2,129.298277 L620,129.298277 L620,260.098277 L643.2,260.098277 Z M661.8,190.498277 L643.2,190.498277 L643.2,147.898277 L661.8,147.898277 C679.6,147.898277 689.4,153.098277 689.4,168.098277 C689.4,182.898277 679.6,190.498277 661.8,190.498277 Z M747.4,260.098277 L757.6,224.698277 L801.6,224.698277 L811.8,260.098277 L836.2,260.098277 L793.6,129.298277 L766.4,129.298277 L723.8,260.098277 L747.4,260.098277 Z M796.4,206.498277 L763,206.498277 L767.6,190.498277 C771.8,176.698277 775.6,161.898277 779.2,147.298277 L780,147.298277 C783.8,161.698277 787.6,176.698277 791.8,190.498277 L796.4,206.498277 Z" id="QANTARA" fill="#FFFFFF" fill-rule="nonzero"></path>
            <path d="M247.5,29.6614238 C285.179112,29.6614238 321.341033,34.1020829 347.458735,44.6614238 C347.822149,44.8083517 349.721025,45.7396757 353.155362,47.4553957 L346.285876,52.5975347 C341.867353,56.1428198 339.658092,57.9082137 339.658092,57.8937164 C312.377993,48.4770116 283.593599,44.6614238 247.5,44.6614238 C173.517165,44.6614238 118.166775,64.4990891 80.9561069,103.952449 C78.114072,106.965773 73.3673653,107.104631 70.3540407,104.262596 C67.340716,101.420561 67.2018582,96.6738546 70.0438931,93.66053 C110.354433,50.9204688 169.67071,29.6614238 247.5,29.6614238 Z" id="Path-3" fill="#B3D7B8" fill-rule="nonzero"></path>
            <path d="M321,98.4041311 C375.657594,32.801377 449.824261,0 543.5,0 C637.175739,0 711.342406,32.801377 766,98.4041311" id="Path-3" stroke="#4AB16A" stroke-width="15" stroke-linecap="round"></path>
            <path d="M387.176924,63.5070262 C401.324345,71.8312658 413.86142,81.8971655 424.956107,93.66053 C427.798142,96.6738546 427.659284,101.420561 424.645959,104.262596 C421.632635,107.104631 416.885928,106.965773 414.043893,103.952449 C402.106199,91.2952684 388.301538,80.6569641 372.613642,72.0448649 C372.068559,71.745634 371.140942,71.2756615 369.83079,70.6349473 L376.880002,65.1028916 L382.51044,60.7417627 C382.908711,60.9891281 384.464206,61.9108826 387.176924,63.5070262 Z" id="Path-3" fill="#B3D7B8" fill-rule="nonzero"></path>
        </g>
    </g>
</svg>